PathFileType	4	(X/Y/Z)	C:\Git\research_data\Projects\torsion_deformities_healthy_kinematics\simulations\P01\pre\dynamic06_l\marker_experimental.trc
DataRate	CameraRate	NumFrames	NumMarkers	Units	OrigDataRate	OrigDataStartFrame	OrigNumFrames
200	200	6	34	mm	200	332	884
Frame#	Time	C7			T10			CLAV			STRN			RBAK			LASI			RASI			SACR			LT1			LT2			LT3			LS1			LS2			LS3			LHEE			LTOE			RT1			RT2			RT3			RS1			RS2			RS3			RHEE			RTOE			LKNE			LANK			RKNE			RANK			LAJC			LKJC			RAJC			RKJC			RHJC			LHJC		
		X1	Y1	Z1	X2	Y2	Z2	X3	Y3	Z3	X4	Y4	Z4	X5	Y5	Z5	X6	Y6	Z6	X7	Y7	Z7	X8	Y8	Z8	X9	Y9	Z9	X10	Y10	Z10	X11	Y11	Z11	X12	Y12	Z12	X13	Y13	Z13	X14	Y14	Z14	X15	Y15	Z15	X16	Y16	Z16	X17	Y17	Z17	X18	Y18	Z18	X19	Y19	Z19	X20	Y20	Z20	X21	Y21	Z21	X22	Y22	Z22	X23	Y23	Z23	X24	Y24	Z24	X25	Y25	Z25	X26	Y26	Z26	X27	Y27	Z27	X28	Y28	Z28	X29	Y29	Z29	X30	Y30	Z30	X31	Y31	Z31	X32	Y32	Z32	X33	Y33	Z33	X34	Y34	Z34	

332	1.655000	-916.826965	1008.519165	-417.830505	-938.930298	830.928223	-424.616821	-799.231567	969.200439	-402.306030	-748.059448	843.518188	-399.393219	-947.275452	951.408508	-336.162598	-805.776245	663.211243	-515.602722	-804.308350	671.855347	-308.015808	-956.587952	712.817627	-417.153412	-854.807373	477.584991	-566.631409	-922.581482	409.302765	-577.490723	-784.396912	374.291992	-552.063049	-969.178406	260.428650	-578.860168	-1087.621948	287.962494	-594.724548	-1007.701660	172.330170	-565.280701	-1174.177246	190.377365	-533.017578	-1115.929932	59.095154	-521.018372	-807.675354	510.943542	-274.345612	-841.624878	423.229370	-288.359161	-703.364136	454.293427	-294.568420	-729.763428	282.479614	-300.566315	-812.057373	203.423309	-257.566132	-684.601013	200.284561	-321.258453	-800.826477	46.574696	-332.384064	-658.821960	47.316238	-360.789642	-884.549622	323.862061	-564.180420	-1156.376831	140.282486	-557.822266	-747.207214	354.568604	-312.419128	-742.554260	44.705872	-310.326385	-1155.840088	136.813583	-524.108276	-878.718140	308.346527	-515.436951	-752.377197	49.395695	-345.558533	-747.143250	356.164795	-366.223297	-871.414127	614.378552	-333.194125	-872.486085	608.066027	-484.788483	
333	1.660000	-910.100952	1009.158081	-416.478607	-932.051025	831.530457	-423.803040	-792.401306	969.824219	-401.663055	-741.150757	844.130615	-399.246704	-940.086731	951.655945	-334.545227	-799.367432	663.152222	-515.143372	-797.588196	672.730835	-307.172363	-949.718506	713.024658	-416.794342	-844.614258	478.069672	-566.559265	-910.972900	408.409821	-577.500183	-772.148682	376.216827	-552.103394	-956.787415	261.939789	-578.772522	-1075.046265	291.571167	-592.969666	-996.508850	174.296799	-565.643982	-1162.378296	194.620926	-531.477844	-1106.096191	62.338600	-521.391602	-800.927185	511.704742	-273.773041	-835.294312	424.136810	-287.133362	-696.863525	454.728821	-294.608521	-725.527954	282.233368	-299.902283	-808.900024	204.467361	-256.343628	-681.837646	199.269180	-320.985779	-800.635803	46.984035	-332.201050	-658.769714	47.393875	-360.340759	-871.241089	323.773895	-564.286377	-1145.656372	144.611359	-556.783875	-741.125122	355.040039	-311.707092	-742.345154	44.713158	-309.728088	-1144.785522	140.778290	-523.116272	-865.101562	308.324036	-515.559875	-752.333191	49.592949	-344.887939	-741.487793	356.423401	-365.515961	-864.667047	614.966859	-332.062680	-865.966112	607.973272	-483.907553	
334	1.665000	-903.405579	1009.888245	-415.185364	-925.211792	832.229492	-423.035889	-785.622925	970.551819	-401.096741	-734.308533	844.842834	-399.183167	-932.945679	951.989136	-332.992828	-793.067566	663.232361	-514.880188	-790.975586	673.738586	-306.340637	-942.888489	713.390808	-416.459595	-834.613342	478.798218	-566.528992	-899.542908	407.782288	-577.351990	-760.102295	378.491516	-552.356323	-944.213989	263.637360	-578.616028	-1062.301392	295.049530	-591.211731	-984.913147	176.369736	-565.944336	-1150.259277	198.390442	-529.935669	-1095.226196	65.625740	-521.700989	-794.421265	512.508057	-273.185699	-829.286377	425.126678	-285.905670	-690.674805	455.084717	-294.534088	-721.811340	281.947876	-299.125610	-806.371582	205.328110	-255.413116	-679.463440	198.278015	-320.437958	-800.497314	47.329891	-332.017975	-658.788513	47.592213	-359.885956	-858.108337	323.993652	-564.321045	-1134.421021	148.660309	-555.757019	-735.444397	355.478027	-310.900452	-742.411865	44.736488	-309.204865	-1133.235962	144.463318	-522.142456	-851.530701	308.631439	-515.624023	-752.409607	49.819004	-344.333221	-736.188843	356.641815	-364.710571	-858.043711	615.647955	-330.976879	-859.570686	607.979267	-483.193758	
335	1.670000	-896.739563	1010.703918	-413.951721	-918.410461	833.019775	-422.314026	-778.896973	971.381775	-400.604034	-727.530273	845.655090	-399.195770	-925.852539	952.404785	-331.509186	-786.859558	663.469910	-514.805237	-784.455750	674.874023	-305.529297	-936.092224	713.916687	-416.144470	-824.815674	479.767151	-566.533386	-888.299377	407.417358	-577.048096	-748.266235	381.110718	-552.815918	-931.479370	265.495148	-578.392639	-1049.421631	298.340332	-589.469482	-972.922485	178.512161	-566.173401	-1137.847534	201.648956	-528.398254	-1083.385132	68.832787	-521.920044	-788.170593	513.337036	-272.587341	-823.629333	426.187042	-284.707336	-684.828979	455.316315	-294.321075	-718.604004	281.627411	-298.254913	-804.452576	206.022308	-254.792084	-677.455688	197.317993	-319.627686	-800.402283	47.614670	-331.836639	-658.851807	47.854519	-359.435822	-845.153503	324.516785	-564.288696	-1122.687134	152.352661	-554.742188	-730.218933	355.854950	-310.005341	-742.710510	44.765186	-308.761078	-1121.207031	147.801437	-521.185486	-838.010742	309.269287	-515.635254	-752.563721	50.052258	-343.900085	-731.282898	356.801056	-363.814392	-851.525573	616.420985	-329.949558	-853.279527	608.099900	-482.649090	
336	1.675000	-890.101318	1011.598694	-412.777893	-911.644592	833.894836	-421.635498	-772.223267	972.311462	-400.181183	-720.812866	846.566650	-399.276855	-918.806885	952.898804	-330.096832	-780.724365	663.881531	-514.903625	-778.011963	676.129700	-304.747986	-929.324158	714.600525	-415.843781	-815.225037	480.968414	-566.564087	-877.241699	407.306335	-576.598328	-736.642273	384.061646	-553.463562	-918.605469	267.481903	-578.106934	-1036.441162	301.388794	-587.760193	-960.548889	180.684326	-566.324768	-1125.168335	204.367264	-526.872437	-1070.652588	71.845932	-522.025208	-782.184814	514.175903	-271.983002	-818.343567	427.305786	-283.569153	-679.349609	455.387756	-293.953278	-715.883057	281.279785	-297.312531	-803.101685	206.576401	-254.478500	-675.785217	196.398010	-318.580078	-800.343018	47.843288	-331.659058	-658.939087	48.136101	-359.000153	-832.370483	325.334991	-564.194824	-1110.474487	155.618698	-553.737305	-725.489807	356.150513	-309.033813	-743.197998	44.792152	-308.389923	-1108.715942	150.731735	-520.241333	-824.545898	310.234467	-515.600464	-752.761719	50.275059	-343.578857	-726.796509	356.889191	-362.840729	-845.091677	617.284589	-328.993404	-847.069964	608.351401	-482.270183	
337	1.680000	-883.489014	1012.565125	-411.663330	-904.911621	834.847412	-420.997864	-765.600830	973.337280	-399.823639	-714.152161	847.575439	-399.418182	-911.807129	953.466431	-328.757111	-774.640930	664.481384	-515.154053	-771.626282	677.495422	-304.006866	-922.579041	715.437927	-415.552277	-805.838745	482.389679	-566.612183	-866.362366	407.435822	-576.019226	-725.227356	387.324432	-554.269775	-905.614563	269.562134	-577.765625	-1023.393250	304.144440	-586.100525	-947.808716	182.845016	-566.393799	-1112.244141	206.523941	-525.364624	-1057.115479	74.568993	-521.997437	-776.469238	515.010376	-271.378876	-813.440735	428.471100	-282.519775	-674.251160	455.273834	-293.423584	-713.613525	280.915009	-296.323425	-802.258484	207.022263	-254.452484	-674.417725	195.527267	-317.332092	-800.312561	48.022491	-331.487335	-659.035278	48.404297	-358.588165	-819.748291	326.436859	-564.045654	-1097.805542	158.398926	-552.739136	-721.283020	356.352722	-308.003052	-743.833557	44.813763	-308.077972	-1095.782471	153.202728	-519.304688	-811.141663	311.520111	-515.526794	-752.979431	50.474884	-343.349670	-722.745117	356.901733	-361.808258	-838.719430	618.236721	-328.120645	-840.917133	608.749381	-482.048656	
